<mxfile host="Electron" agent="Mozilla/5.0 (Windows NT 10.0; Win64; x64) AppleWebKit/537.36 (KHTML, like Gecko) draw.io/27.0.9 Chrome/134.0.6998.205 Electron/35.4.0 Safari/537.36" version="27.0.9" pages="3">
  <diagram name="Data Architecture" id="8qaep0BqMNRuxn_fHdxP">
    <mxGraphModel dx="1901" dy="885" grid="1" gridSize="10" guides="1" tooltips="1" connect="1" arrows="1" fold="1" page="0" pageScale="1" pageWidth="850" pageHeight="1100" math="0" shadow="0">
      <root>
        <mxCell id="0" />
        <mxCell id="1" parent="0" />
        <mxCell id="1Z7cYpBseG0tdDiKhxMk-2" value="" style="rounded=0;whiteSpace=wrap;html=1;fillColor=none;dashed=1;strokeColor=#535353;" parent="1" vertex="1">
          <mxGeometry x="-120" y="270" width="120" height="410" as="geometry" />
        </mxCell>
        <mxCell id="1Z7cYpBseG0tdDiKhxMk-3" value="&lt;font style=&quot;font-size: 19px;&quot;&gt;Sources&lt;/font&gt;" style="rounded=0;whiteSpace=wrap;html=1;strokeColor=none;" parent="1" vertex="1">
          <mxGeometry x="-105" y="260" width="90" height="20" as="geometry" />
        </mxCell>
        <mxCell id="1Z7cYpBseG0tdDiKhxMk-4" value="" style="rounded=0;whiteSpace=wrap;html=1;fillColor=none;dashed=1;strokeColor=#535353;" parent="1" vertex="1">
          <mxGeometry x="50" y="190" width="750" height="600" as="geometry" />
        </mxCell>
        <mxCell id="1Z7cYpBseG0tdDiKhxMk-6" value="" style="rounded=0;whiteSpace=wrap;html=1;fillColor=none;dashed=1;strokeColor=#535353;" parent="1" vertex="1">
          <mxGeometry x="870" y="270" width="160" height="450" as="geometry" />
        </mxCell>
        <mxCell id="1Z7cYpBseG0tdDiKhxMk-7" value="&lt;font style=&quot;font-size: 19px;&quot;&gt;Consumers&lt;/font&gt;" style="rounded=0;whiteSpace=wrap;html=1;strokeColor=none;" parent="1" vertex="1">
          <mxGeometry x="892.5" y="260" width="115" height="20" as="geometry" />
        </mxCell>
        <mxCell id="1Z7cYpBseG0tdDiKhxMk-8" value="&lt;font style=&quot;font-size: 14px;&quot;&gt;&lt;b&gt;Bronze Layer&lt;/b&gt;&lt;/font&gt;" style="rounded=0;whiteSpace=wrap;html=1;fillColor=#CD7F32;strokeColor=none;" parent="1" vertex="1">
          <mxGeometry x="80" y="220" width="190" height="20" as="geometry" />
        </mxCell>
        <mxCell id="1Z7cYpBseG0tdDiKhxMk-9" value="" style="rounded=0;whiteSpace=wrap;html=1;fillColor=none;strokeColor=#CD7F32;strokeWidth=3;" parent="1" vertex="1">
          <mxGeometry x="80" y="250" width="190" height="520" as="geometry" />
        </mxCell>
        <mxCell id="1Z7cYpBseG0tdDiKhxMk-10" value="&lt;font style=&quot;font-size: 14px;&quot;&gt;&lt;b&gt;Silver Layer&lt;/b&gt;&lt;/font&gt;" style="rounded=0;whiteSpace=wrap;html=1;fillColor=#C0C0C0;strokeColor=none;" parent="1" vertex="1">
          <mxGeometry x="330" y="220" width="190" height="20" as="geometry" />
        </mxCell>
        <mxCell id="1Z7cYpBseG0tdDiKhxMk-11" value="" style="rounded=0;whiteSpace=wrap;html=1;fillColor=none;strokeColor=#C0C0C0;strokeWidth=3;" parent="1" vertex="1">
          <mxGeometry x="330" y="250" width="190" height="520" as="geometry" />
        </mxCell>
        <mxCell id="1Z7cYpBseG0tdDiKhxMk-12" value="&lt;font style=&quot;font-size: 14px;&quot;&gt;&lt;b&gt;Gold Layer&lt;/b&gt;&lt;/font&gt;" style="rounded=0;whiteSpace=wrap;html=1;fillColor=#FFD700;strokeColor=none;" parent="1" vertex="1">
          <mxGeometry x="580" y="220" width="190" height="20" as="geometry" />
        </mxCell>
        <mxCell id="1Z7cYpBseG0tdDiKhxMk-13" value="" style="rounded=0;whiteSpace=wrap;html=1;fillColor=none;strokeColor=#FFD700;strokeWidth=3;" parent="1" vertex="1">
          <mxGeometry x="580" y="250" width="190" height="520" as="geometry" />
        </mxCell>
        <mxCell id="1Z7cYpBseG0tdDiKhxMk-14" value="" style="image;aspect=fixed;html=1;points=[];align=center;fontSize=12;image=img/lib/azure2/general/Folder_Blank.svg;" parent="1" vertex="1">
          <mxGeometry x="-94.5" y="310" width="69" height="56.00000000000001" as="geometry" />
        </mxCell>
        <mxCell id="1Z7cYpBseG0tdDiKhxMk-15" value="" style="image;aspect=fixed;html=1;points=[];align=center;fontSize=12;image=img/lib/azure2/general/File.svg;" parent="1" vertex="1">
          <mxGeometry x="-47.46" y="340" width="32.46" height="40" as="geometry" />
        </mxCell>
        <mxCell id="1Z7cYpBseG0tdDiKhxMk-16" value="&lt;b&gt;&lt;font style=&quot;font-size: 15px;&quot;&gt;CRM&lt;/font&gt;&lt;/b&gt;" style="text;html=1;align=center;verticalAlign=middle;whiteSpace=wrap;rounded=0;" parent="1" vertex="1">
          <mxGeometry x="-90" y="380" width="60" height="30" as="geometry" />
        </mxCell>
        <mxCell id="1Z7cYpBseG0tdDiKhxMk-17" value="" style="image;aspect=fixed;html=1;points=[];align=center;fontSize=12;image=img/lib/azure2/general/Folder_Blank.svg;" parent="1" vertex="1">
          <mxGeometry x="-94.5" y="430" width="69" height="56.00000000000001" as="geometry" />
        </mxCell>
        <mxCell id="1Z7cYpBseG0tdDiKhxMk-18" value="" style="image;aspect=fixed;html=1;points=[];align=center;fontSize=12;image=img/lib/azure2/general/File.svg;" parent="1" vertex="1">
          <mxGeometry x="-47.46" y="460" width="32.46" height="40" as="geometry" />
        </mxCell>
        <mxCell id="1Z7cYpBseG0tdDiKhxMk-19" value="&lt;b&gt;&lt;font style=&quot;font-size: 15px;&quot;&gt;ERP&lt;/font&gt;&lt;/b&gt;" style="text;html=1;align=center;verticalAlign=middle;whiteSpace=wrap;rounded=0;" parent="1" vertex="1">
          <mxGeometry x="-90" y="500" width="60" height="30" as="geometry" />
        </mxCell>
        <mxCell id="1Z7cYpBseG0tdDiKhxMk-20" value="" style="endArrow=none;html=1;rounded=0;exitX=0.167;exitY=0.683;exitDx=0;exitDy=0;exitPerimeter=0;entryX=0.833;entryY=0.683;entryDx=0;entryDy=0;entryPerimeter=0;" parent="1" edge="1">
          <mxGeometry width="50" height="50" relative="1" as="geometry">
            <mxPoint x="-99.96000000000004" y="540" as="sourcePoint" />
            <mxPoint x="-20.039999999999964" y="540" as="targetPoint" />
          </mxGeometry>
        </mxCell>
        <mxCell id="1Z7cYpBseG0tdDiKhxMk-21" value="&lt;font style=&quot;font-size: 13px;&quot;&gt;Object type: CSV files&lt;/font&gt;&lt;div&gt;&lt;font style=&quot;font-size: 13px;&quot;&gt;Interface : Local in folders&lt;/font&gt;&lt;/div&gt;" style="text;html=1;align=center;verticalAlign=middle;whiteSpace=wrap;rounded=0;" parent="1" vertex="1">
          <mxGeometry x="-113.62" y="570" width="107.25" height="70" as="geometry" />
        </mxCell>
        <mxCell id="1Z7cYpBseG0tdDiKhxMk-22" value="" style="html=1;verticalLabelPosition=bottom;align=center;labelBackgroundColor=#ffffff;verticalAlign=top;strokeWidth=2;strokeColor=#030603;shadow=0;dashed=0;shape=mxgraph.ios7.icons.data;fillColor=#CD7F32;" parent="1" vertex="1">
          <mxGeometry x="148.94" y="270" width="52.12" height="60" as="geometry" />
        </mxCell>
        <mxCell id="1Z7cYpBseG0tdDiKhxMk-23" value="" style="html=1;verticalLabelPosition=bottom;align=center;labelBackgroundColor=#ffffff;verticalAlign=top;strokeWidth=2;strokeColor=#030603;shadow=0;dashed=0;shape=mxgraph.ios7.icons.data;fillColor=#C0C0C0;" parent="1" vertex="1">
          <mxGeometry x="398.94" y="270" width="52.12" height="60" as="geometry" />
        </mxCell>
        <mxCell id="1Z7cYpBseG0tdDiKhxMk-24" value="" style="html=1;verticalLabelPosition=bottom;align=center;labelBackgroundColor=#ffffff;verticalAlign=top;strokeWidth=2;strokeColor=#030603;shadow=0;dashed=0;shape=mxgraph.ios7.icons.data;fillColor=#FFD700;" parent="1" vertex="1">
          <mxGeometry x="648.94" y="270" width="52.12" height="60" as="geometry" />
        </mxCell>
        <mxCell id="1Z7cYpBseG0tdDiKhxMk-25" value="" style="endArrow=classic;html=1;rounded=0;entryX=0.011;entryY=0.348;entryDx=0;entryDy=0;entryPerimeter=0;exitX=0.992;exitY=0.39;exitDx=0;exitDy=0;exitPerimeter=0;strokeWidth=5;flowAnimation=1;" parent="1" source="1Z7cYpBseG0tdDiKhxMk-2" target="1Z7cYpBseG0tdDiKhxMk-9" edge="1">
          <mxGeometry width="50" height="50" relative="1" as="geometry">
            <mxPoint x="10" y="540" as="sourcePoint" />
            <mxPoint x="60" y="490" as="targetPoint" />
          </mxGeometry>
        </mxCell>
        <mxCell id="1Z7cYpBseG0tdDiKhxMk-26" value="" style="endArrow=classic;html=1;rounded=0;entryX=0;entryY=0.369;entryDx=0;entryDy=0;entryPerimeter=0;exitX=0.999;exitY=0.371;exitDx=0;exitDy=0;exitPerimeter=0;strokeWidth=5;flowAnimation=1;" parent="1" source="1Z7cYpBseG0tdDiKhxMk-9" target="1Z7cYpBseG0tdDiKhxMk-11" edge="1">
          <mxGeometry width="50" height="50" relative="1" as="geometry">
            <mxPoint x="210" y="470" as="sourcePoint" />
            <mxPoint x="290" y="470" as="targetPoint" />
          </mxGeometry>
        </mxCell>
        <mxCell id="1Z7cYpBseG0tdDiKhxMk-27" value="" style="endArrow=classic;html=1;rounded=0;exitX=1.016;exitY=0.387;exitDx=0;exitDy=0;exitPerimeter=0;strokeWidth=5;flowAnimation=1;entryX=-0.011;entryY=0.385;entryDx=0;entryDy=0;entryPerimeter=0;" parent="1" source="1Z7cYpBseG0tdDiKhxMk-11" target="1Z7cYpBseG0tdDiKhxMk-13" edge="1">
          <mxGeometry width="50" height="50" relative="1" as="geometry">
            <mxPoint x="550" y="451" as="sourcePoint" />
            <mxPoint x="590" y="450" as="targetPoint" />
            <Array as="points">
              <mxPoint x="550" y="450" />
            </Array>
          </mxGeometry>
        </mxCell>
        <mxCell id="1Z7cYpBseG0tdDiKhxMk-28" value="" style="endArrow=classic;html=1;rounded=0;exitX=1.014;exitY=0.382;exitDx=0;exitDy=0;exitPerimeter=0;strokeWidth=5;flowAnimation=1;" parent="1" source="1Z7cYpBseG0tdDiKhxMk-13" edge="1">
          <mxGeometry width="50" height="50" relative="1" as="geometry">
            <mxPoint x="560" y="481" as="sourcePoint" />
            <mxPoint x="870" y="450" as="targetPoint" />
            <Array as="points" />
          </mxGeometry>
        </mxCell>
        <mxCell id="1Z7cYpBseG0tdDiKhxMk-29" value="&lt;font&gt;RAW DATA&lt;/font&gt;" style="text;html=1;align=center;verticalAlign=middle;whiteSpace=wrap;rounded=0;" parent="1" vertex="1">
          <mxGeometry x="124.47" y="330" width="101.06" height="30" as="geometry" />
        </mxCell>
        <mxCell id="1Z7cYpBseG0tdDiKhxMk-30" value="&lt;font&gt;CLEAN AND STANDARIZED DATA&lt;/font&gt;" style="text;html=1;align=center;verticalAlign=middle;whiteSpace=wrap;rounded=0;" parent="1" vertex="1">
          <mxGeometry x="374.47" y="340" width="101.06" height="30" as="geometry" />
        </mxCell>
        <mxCell id="1Z7cYpBseG0tdDiKhxMk-31" value="BI-READY DATA" style="text;html=1;align=center;verticalAlign=middle;whiteSpace=wrap;rounded=0;" parent="1" vertex="1">
          <mxGeometry x="630" y="340" width="101.06" height="30" as="geometry" />
        </mxCell>
        <mxCell id="1Z7cYpBseG0tdDiKhxMk-32" value="" style="endArrow=none;html=1;rounded=0;exitX=0.167;exitY=0.683;exitDx=0;exitDy=0;exitPerimeter=0;entryX=0.895;entryY=0.229;entryDx=0;entryDy=0;entryPerimeter=0;" parent="1" target="1Z7cYpBseG0tdDiKhxMk-9" edge="1">
          <mxGeometry width="50" height="50" relative="1" as="geometry">
            <mxPoint x="100" y="369" as="sourcePoint" />
            <mxPoint x="179.92000000000007" y="369" as="targetPoint" />
          </mxGeometry>
        </mxCell>
        <mxCell id="1Z7cYpBseG0tdDiKhxMk-33" value="" style="endArrow=none;html=1;rounded=0;exitX=0.167;exitY=0.683;exitDx=0;exitDy=0;exitPerimeter=0;entryX=0.895;entryY=0.229;entryDx=0;entryDy=0;entryPerimeter=0;" parent="1" edge="1">
          <mxGeometry width="50" height="50" relative="1" as="geometry">
            <mxPoint x="350" y="380" as="sourcePoint" />
            <mxPoint x="500" y="380" as="targetPoint" />
          </mxGeometry>
        </mxCell>
        <mxCell id="1Z7cYpBseG0tdDiKhxMk-34" value="" style="endArrow=none;html=1;rounded=0;exitX=0.167;exitY=0.683;exitDx=0;exitDy=0;exitPerimeter=0;entryX=0.895;entryY=0.229;entryDx=0;entryDy=0;entryPerimeter=0;" parent="1" edge="1">
          <mxGeometry width="50" height="50" relative="1" as="geometry">
            <mxPoint x="600" y="377.5" as="sourcePoint" />
            <mxPoint x="750" y="377.5" as="targetPoint" />
          </mxGeometry>
        </mxCell>
        <mxCell id="1Z7cYpBseG0tdDiKhxMk-35" value="&lt;font style=&quot;font-size: 16px;&quot;&gt;&lt;b&gt;Object type: &lt;/b&gt;TABLES&lt;/font&gt;&lt;div&gt;&lt;font style=&quot;font-size: 16px;&quot;&gt;&lt;br&gt;&lt;/font&gt;&lt;/div&gt;&lt;div&gt;&lt;font style=&quot;font-size: 16px;&quot;&gt;&lt;b&gt;Load:&lt;/b&gt;&lt;/font&gt;&lt;/div&gt;&lt;div&gt;&lt;ul&gt;&lt;li&gt;&lt;font style=&quot;font-size: 16px;&quot;&gt;Batch processing&lt;/font&gt;&lt;/li&gt;&lt;li&gt;&lt;font style=&quot;font-size: 16px;&quot;&gt;Full load&lt;/font&gt;&lt;/li&gt;&lt;li&gt;&lt;font style=&quot;font-size: 16px;&quot;&gt;Truncate &amp;amp; Insert&lt;/font&gt;&lt;/li&gt;&lt;/ul&gt;&lt;/div&gt;&lt;div&gt;&lt;font style=&quot;font-size: 16px;&quot;&gt;&lt;br&gt;&lt;/font&gt;&lt;/div&gt;&lt;div&gt;&lt;font style=&quot;font-size: 16px;&quot;&gt;&lt;br&gt;&lt;/font&gt;&lt;/div&gt;&lt;div&gt;&lt;font style=&quot;font-size: 16px;&quot;&gt;&lt;b&gt;Data Model :&lt;/b&gt; None (raw)&lt;/font&gt;&lt;/div&gt;&lt;div&gt;&lt;br&gt;&lt;/div&gt;" style="text;html=1;align=left;verticalAlign=middle;whiteSpace=wrap;rounded=0;" parent="1" vertex="1">
          <mxGeometry x="85" y="397.5" width="180" height="225" as="geometry" />
        </mxCell>
        <mxCell id="1Z7cYpBseG0tdDiKhxMk-36" value="&lt;font style=&quot;font-size: 16px;&quot;&gt;&lt;b&gt;Object type: &lt;/b&gt;TABLES&lt;/font&gt;&lt;div&gt;&lt;font style=&quot;font-size: 16px;&quot;&gt;&lt;br&gt;&lt;/font&gt;&lt;/div&gt;&lt;div&gt;&lt;font style=&quot;font-size: 16px;&quot;&gt;&lt;b&gt;Load:&lt;/b&gt;&lt;/font&gt;&lt;/div&gt;&lt;div&gt;&lt;ul&gt;&lt;li&gt;&lt;font style=&quot;font-size: 16px;&quot;&gt;Batch processing&lt;/font&gt;&lt;/li&gt;&lt;li&gt;&lt;font style=&quot;font-size: 16px;&quot;&gt;Full load&lt;/font&gt;&lt;/li&gt;&lt;li&gt;&lt;font style=&quot;font-size: 16px;&quot;&gt;Truncate &amp;amp; Insert&lt;/font&gt;&lt;/li&gt;&lt;/ul&gt;&lt;/div&gt;&lt;div&gt;&lt;font style=&quot;font-size: 16px;&quot;&gt;&lt;br&gt;&lt;/font&gt;&lt;/div&gt;&lt;div&gt;&lt;font style=&quot;&quot;&gt;&lt;div style=&quot;font-size: 12px;&quot;&gt;&lt;font style=&quot;font-size: 16px;&quot;&gt;&lt;b&gt;Transformations:&lt;/b&gt;&lt;/font&gt;&lt;/div&gt;&lt;div style=&quot;&quot;&gt;&lt;ul style=&quot;&quot;&gt;&lt;li style=&quot;&quot;&gt;&lt;span style=&quot;font-size: 16px;&quot;&gt;Data Cleansing&lt;/span&gt;&lt;/li&gt;&lt;li style=&quot;&quot;&gt;&lt;span style=&quot;font-size: 16px;&quot;&gt;Data Standarization&lt;/span&gt;&lt;/li&gt;&lt;li style=&quot;font-size: 12px;&quot;&gt;&lt;span style=&quot;background-color: transparent; color: light-dark(rgb(0, 0, 0), rgb(255, 255, 255)); font-size: 16px;&quot;&gt;Data Normalization&lt;/span&gt;&lt;/li&gt;&lt;li style=&quot;&quot;&gt;&lt;span style=&quot;font-size: 16px;&quot;&gt;Derived Columns&lt;/span&gt;&lt;/li&gt;&lt;li&gt;&lt;span style=&quot;font-size: 16px;&quot;&gt;Data Enrichement&lt;/span&gt;&lt;/li&gt;&lt;/ul&gt;&lt;/div&gt;&lt;/font&gt;&lt;/div&gt;&lt;div&gt;&lt;font style=&quot;font-size: 16px;&quot;&gt;&lt;br&gt;&lt;/font&gt;&lt;/div&gt;&lt;div&gt;&lt;font style=&quot;font-size: 16px;&quot;&gt;&lt;b&gt;Data Model :&lt;/b&gt; None (raw)&lt;/font&gt;&lt;/div&gt;&lt;div&gt;&lt;br&gt;&lt;/div&gt;" style="text;html=1;align=left;verticalAlign=middle;whiteSpace=wrap;rounded=0;" parent="1" vertex="1">
          <mxGeometry x="335" y="470" width="180" height="225" as="geometry" />
        </mxCell>
        <mxCell id="1Z7cYpBseG0tdDiKhxMk-37" value="&lt;font style=&quot;font-size: 16px;&quot;&gt;&lt;b&gt;Object type: &lt;/b&gt;VIEWS&lt;/font&gt;&lt;div&gt;&lt;font style=&quot;font-size: 16px;&quot;&gt;&lt;br&gt;&lt;/font&gt;&lt;/div&gt;&lt;div&gt;&lt;font style=&quot;font-size: 16px;&quot;&gt;&lt;b&gt;No Load&lt;/b&gt;&lt;/font&gt;&lt;/div&gt;&lt;div&gt;&lt;font style=&quot;font-size: 16px;&quot;&gt;&lt;br&gt;&lt;/font&gt;&lt;/div&gt;&lt;div&gt;&lt;font style=&quot;&quot;&gt;&lt;div style=&quot;font-size: 12px;&quot;&gt;&lt;font style=&quot;font-size: 16px;&quot;&gt;&lt;b&gt;Transformations:&lt;/b&gt;&lt;/font&gt;&lt;/div&gt;&lt;div style=&quot;&quot;&gt;&lt;ul style=&quot;&quot;&gt;&lt;li style=&quot;&quot;&gt;&lt;span style=&quot;font-size: 16px;&quot;&gt;Data Integrations&lt;/span&gt;&lt;/li&gt;&lt;li style=&quot;&quot;&gt;&lt;span style=&quot;font-size: 16px;&quot;&gt;Aggregations&lt;/span&gt;&lt;/li&gt;&lt;li style=&quot;&quot;&gt;&lt;span style=&quot;font-size: 16px;&quot;&gt;Business Logics&amp;nbsp;&lt;/span&gt;&lt;/li&gt;&lt;li style=&quot;&quot;&gt;&lt;span style=&quot;font-size: 16px;&quot;&gt;Consumer Specifications&lt;/span&gt;&lt;/li&gt;&lt;/ul&gt;&lt;/div&gt;&lt;/font&gt;&lt;/div&gt;&lt;div&gt;&lt;font style=&quot;font-size: 16px;&quot;&gt;&lt;br&gt;&lt;/font&gt;&lt;/div&gt;&lt;div&gt;&lt;font style=&quot;font-size: 16px;&quot;&gt;&lt;b&gt;Data Model :&lt;/b&gt;&amp;nbsp;&lt;/font&gt;&lt;/div&gt;&lt;div&gt;&lt;ul&gt;&lt;li&gt;&lt;font style=&quot;font-size: 16px;&quot;&gt;Start schema&lt;/font&gt;&lt;/li&gt;&lt;li&gt;&lt;font style=&quot;font-size: 16px;&quot;&gt;Flat Table&lt;/font&gt;&lt;/li&gt;&lt;li&gt;&lt;font style=&quot;font-size: 16px;&quot;&gt;Aggregated Table&lt;/font&gt;&lt;/li&gt;&lt;/ul&gt;&lt;/div&gt;&lt;div&gt;&lt;font style=&quot;font-size: 16px;&quot;&gt;&lt;br&gt;&lt;/font&gt;&lt;/div&gt;&lt;div&gt;&lt;font style=&quot;font-size: 16px;&quot;&gt;&lt;br&gt;&lt;/font&gt;&lt;/div&gt;&lt;div&gt;&lt;br&gt;&lt;/div&gt;" style="text;html=1;align=left;verticalAlign=middle;whiteSpace=wrap;rounded=0;" parent="1" vertex="1">
          <mxGeometry x="590.53" y="470" width="180" height="225" as="geometry" />
        </mxCell>
        <mxCell id="1Z7cYpBseG0tdDiKhxMk-38" value="" style="points=[];aspect=fixed;html=1;align=center;shadow=0;dashed=0;fillColor=#FF6A00;strokeColor=none;shape=mxgraph.alibaba_cloud.machine_learning;" parent="1" vertex="1">
          <mxGeometry x="905.27" y="570" width="89.46" height="90" as="geometry" />
        </mxCell>
        <mxCell id="1Z7cYpBseG0tdDiKhxMk-39" value="&lt;b&gt;&lt;font style=&quot;font-size: 15px;&quot;&gt;Machine learning&lt;/font&gt;&lt;/b&gt;" style="text;html=1;align=center;verticalAlign=middle;whiteSpace=wrap;rounded=0;" parent="1" vertex="1">
          <mxGeometry x="920" y="660" width="60" height="30" as="geometry" />
        </mxCell>
        <mxCell id="1Z7cYpBseG0tdDiKhxMk-40" value="" style="image;aspect=fixed;html=1;points=[];align=center;fontSize=12;image=img/lib/azure2/analytics/Power_BI_Embedded.svg;" parent="1" vertex="1">
          <mxGeometry x="919" y="304" width="51" height="68" as="geometry" />
        </mxCell>
        <mxCell id="1Z7cYpBseG0tdDiKhxMk-41" value="" style="verticalLabelPosition=bottom;sketch=0;aspect=fixed;html=1;verticalAlign=top;strokeColor=none;align=center;outlineConnect=0;shape=mxgraph.citrix.reporting;" parent="1" vertex="1">
          <mxGeometry x="919" y="441" width="61.5" height="69" as="geometry" />
        </mxCell>
        <mxCell id="1Z7cYpBseG0tdDiKhxMk-42" value="&lt;b&gt;&lt;font style=&quot;font-size: 15px;&quot;&gt;Reporting&lt;/font&gt;&lt;/b&gt;" style="text;html=1;align=center;verticalAlign=middle;whiteSpace=wrap;rounded=0;" parent="1" vertex="1">
          <mxGeometry x="925" y="510" width="60" height="30" as="geometry" />
        </mxCell>
        <mxCell id="1Z7cYpBseG0tdDiKhxMk-44" value="&lt;b&gt;&lt;font style=&quot;font-size: 15px;&quot;&gt;Power BI&lt;/font&gt;&lt;/b&gt;" style="text;html=1;align=center;verticalAlign=middle;whiteSpace=wrap;rounded=0;" parent="1" vertex="1">
          <mxGeometry x="889" y="372" width="111" height="30" as="geometry" />
        </mxCell>
        <mxCell id="LFjthoZGIh7k7TC1NSvM-1" value="&lt;h2&gt;&lt;font face=&quot;Verdana&quot; style=&quot;font-size: 26px;&quot;&gt;Datawarehouse Architecture &lt;span style=&quot;font-weight: normal;&quot;&gt;(&lt;/span&gt;&lt;/font&gt;&lt;span style=&quot;background-color: transparent; font-size: 26px; font-weight: normal;&quot;&gt;&lt;font face=&quot;Verdana&quot;&gt;Medallion Architecture)&lt;/font&gt;&lt;/span&gt;&lt;/h2&gt;&lt;div&gt;&lt;br&gt;&lt;/div&gt;" style="text;html=1;align=center;verticalAlign=middle;whiteSpace=wrap;rounded=0;" vertex="1" parent="1">
          <mxGeometry x="201.06" y="140" width="450" height="30" as="geometry" />
        </mxCell>
      </root>
    </mxGraphModel>
  </diagram>
  <diagram name="Data Flow" id="75Tm2YsdMAdW7Gt0smMX">
    <mxGraphModel dx="1383" dy="580" grid="1" gridSize="10" guides="1" tooltips="1" connect="1" arrows="1" fold="1" page="0" pageScale="1" pageWidth="850" pageHeight="1100" math="0" shadow="0">
      <root>
        <mxCell id="4alj2DSW-OtpvTnRXfDN-0" />
        <mxCell id="4alj2DSW-OtpvTnRXfDN-1" parent="4alj2DSW-OtpvTnRXfDN-0" />
        <mxCell id="4alj2DSW-OtpvTnRXfDN-2" value="" style="rounded=0;whiteSpace=wrap;html=1;fillColor=none;dashed=1;strokeColor=#535353;" vertex="1" parent="4alj2DSW-OtpvTnRXfDN-1">
          <mxGeometry x="-100" y="290" width="120" height="410" as="geometry" />
        </mxCell>
        <mxCell id="4alj2DSW-OtpvTnRXfDN-3" value="&lt;font style=&quot;font-size: 19px;&quot;&gt;Sources&lt;/font&gt;" style="rounded=0;whiteSpace=wrap;html=1;strokeColor=none;" vertex="1" parent="4alj2DSW-OtpvTnRXfDN-1">
          <mxGeometry x="-85" y="280" width="90" height="20" as="geometry" />
        </mxCell>
        <mxCell id="4alj2DSW-OtpvTnRXfDN-4" value="" style="rounded=0;whiteSpace=wrap;html=1;fillColor=none;dashed=1;strokeColor=#535353;" vertex="1" parent="4alj2DSW-OtpvTnRXfDN-1">
          <mxGeometry x="50" y="190" width="750" height="600" as="geometry" />
        </mxCell>
        <mxCell id="4alj2DSW-OtpvTnRXfDN-5" value="&lt;font style=&quot;font-size: 19px;&quot;&gt;Data Lineage&lt;/font&gt;" style="rounded=0;whiteSpace=wrap;html=1;strokeColor=none;" vertex="1" parent="4alj2DSW-OtpvTnRXfDN-1">
          <mxGeometry x="322.5" y="180" width="205" height="20" as="geometry" />
        </mxCell>
        <mxCell id="4alj2DSW-OtpvTnRXfDN-6" value="" style="rounded=0;whiteSpace=wrap;html=1;fillColor=none;dashed=1;strokeColor=#535353;" vertex="1" parent="4alj2DSW-OtpvTnRXfDN-1">
          <mxGeometry x="870" y="190" width="160" height="450" as="geometry" />
        </mxCell>
        <mxCell id="4alj2DSW-OtpvTnRXfDN-7" value="&lt;font style=&quot;font-size: 19px;&quot;&gt;Consumers&lt;/font&gt;" style="rounded=0;whiteSpace=wrap;html=1;strokeColor=none;" vertex="1" parent="4alj2DSW-OtpvTnRXfDN-1">
          <mxGeometry x="892.5" y="180" width="115" height="20" as="geometry" />
        </mxCell>
        <mxCell id="4alj2DSW-OtpvTnRXfDN-8" value="&lt;font style=&quot;font-size: 14px;&quot;&gt;&lt;b&gt;Bronze Layer&lt;/b&gt;&lt;/font&gt;" style="rounded=0;whiteSpace=wrap;html=1;fillColor=#CD7F32;strokeColor=none;" vertex="1" parent="4alj2DSW-OtpvTnRXfDN-1">
          <mxGeometry x="80" y="220" width="190" height="20" as="geometry" />
        </mxCell>
        <mxCell id="4alj2DSW-OtpvTnRXfDN-9" value="" style="rounded=0;whiteSpace=wrap;html=1;fillColor=none;strokeColor=#CD7F32;strokeWidth=3;" vertex="1" parent="4alj2DSW-OtpvTnRXfDN-1">
          <mxGeometry x="80" y="250" width="190" height="510" as="geometry" />
        </mxCell>
        <mxCell id="4alj2DSW-OtpvTnRXfDN-10" value="&lt;font style=&quot;font-size: 14px;&quot;&gt;&lt;b&gt;Silver Layer&lt;/b&gt;&lt;/font&gt;" style="rounded=0;whiteSpace=wrap;html=1;fillColor=#C0C0C0;strokeColor=none;" vertex="1" parent="4alj2DSW-OtpvTnRXfDN-1">
          <mxGeometry x="330" y="220" width="190" height="20" as="geometry" />
        </mxCell>
        <mxCell id="4alj2DSW-OtpvTnRXfDN-11" value="" style="rounded=0;whiteSpace=wrap;html=1;fillColor=none;strokeColor=#C0C0C0;strokeWidth=3;" vertex="1" parent="4alj2DSW-OtpvTnRXfDN-1">
          <mxGeometry x="330" y="250" width="190" height="520" as="geometry" />
        </mxCell>
        <mxCell id="4alj2DSW-OtpvTnRXfDN-12" value="&lt;font style=&quot;font-size: 14px;&quot;&gt;&lt;b&gt;Gold Layer&lt;/b&gt;&lt;/font&gt;" style="rounded=0;whiteSpace=wrap;html=1;fillColor=#FFD700;strokeColor=none;" vertex="1" parent="4alj2DSW-OtpvTnRXfDN-1">
          <mxGeometry x="580" y="220" width="190" height="20" as="geometry" />
        </mxCell>
        <mxCell id="4alj2DSW-OtpvTnRXfDN-13" value="" style="rounded=0;whiteSpace=wrap;html=1;fillColor=none;strokeColor=#FFD700;strokeWidth=3;" vertex="1" parent="4alj2DSW-OtpvTnRXfDN-1">
          <mxGeometry x="580" y="250" width="190" height="520" as="geometry" />
        </mxCell>
        <mxCell id="4alj2DSW-OtpvTnRXfDN-14" value="" style="image;aspect=fixed;html=1;points=[];align=center;fontSize=12;image=img/lib/azure2/general/Folder_Blank.svg;" vertex="1" parent="4alj2DSW-OtpvTnRXfDN-1">
          <mxGeometry x="-74.5" y="330" width="69" height="56.00000000000001" as="geometry" />
        </mxCell>
        <mxCell id="4alj2DSW-OtpvTnRXfDN-15" value="" style="image;aspect=fixed;html=1;points=[];align=center;fontSize=12;image=img/lib/azure2/general/File.svg;" vertex="1" parent="4alj2DSW-OtpvTnRXfDN-1">
          <mxGeometry x="-27.46" y="360" width="32.46" height="40" as="geometry" />
        </mxCell>
        <mxCell id="4alj2DSW-OtpvTnRXfDN-16" value="&lt;b&gt;&lt;font style=&quot;font-size: 15px;&quot;&gt;CRM&lt;/font&gt;&lt;/b&gt;" style="text;html=1;align=center;verticalAlign=middle;whiteSpace=wrap;rounded=0;" vertex="1" parent="4alj2DSW-OtpvTnRXfDN-1">
          <mxGeometry x="-70" y="400" width="60" height="30" as="geometry" />
        </mxCell>
        <mxCell id="4alj2DSW-OtpvTnRXfDN-17" value="" style="image;aspect=fixed;html=1;points=[];align=center;fontSize=12;image=img/lib/azure2/general/Folder_Blank.svg;" vertex="1" parent="4alj2DSW-OtpvTnRXfDN-1">
          <mxGeometry x="-79.75" y="566" width="69" height="56.00000000000001" as="geometry" />
        </mxCell>
        <mxCell id="4alj2DSW-OtpvTnRXfDN-18" value="" style="image;aspect=fixed;html=1;points=[];align=center;fontSize=12;image=img/lib/azure2/general/File.svg;" vertex="1" parent="4alj2DSW-OtpvTnRXfDN-1">
          <mxGeometry x="-32.71" y="596" width="32.46" height="40" as="geometry" />
        </mxCell>
        <mxCell id="4alj2DSW-OtpvTnRXfDN-19" value="&lt;b&gt;&lt;font style=&quot;font-size: 15px;&quot;&gt;ERP&lt;/font&gt;&lt;/b&gt;" style="text;html=1;align=center;verticalAlign=middle;whiteSpace=wrap;rounded=0;" vertex="1" parent="4alj2DSW-OtpvTnRXfDN-1">
          <mxGeometry x="-75.25" y="636" width="60" height="30" as="geometry" />
        </mxCell>
        <mxCell id="4alj2DSW-OtpvTnRXfDN-38" value="" style="points=[];aspect=fixed;html=1;align=center;shadow=0;dashed=0;fillColor=#FF6A00;strokeColor=none;shape=mxgraph.alibaba_cloud.machine_learning;" vertex="1" parent="4alj2DSW-OtpvTnRXfDN-1">
          <mxGeometry x="905.27" y="490" width="89.46" height="90" as="geometry" />
        </mxCell>
        <mxCell id="4alj2DSW-OtpvTnRXfDN-39" value="&lt;b&gt;&lt;font style=&quot;font-size: 15px;&quot;&gt;Machine learning&lt;/font&gt;&lt;/b&gt;" style="text;html=1;align=center;verticalAlign=middle;whiteSpace=wrap;rounded=0;" vertex="1" parent="4alj2DSW-OtpvTnRXfDN-1">
          <mxGeometry x="920" y="580" width="60" height="30" as="geometry" />
        </mxCell>
        <mxCell id="4alj2DSW-OtpvTnRXfDN-40" value="" style="image;aspect=fixed;html=1;points=[];align=center;fontSize=12;image=img/lib/azure2/analytics/Power_BI_Embedded.svg;" vertex="1" parent="4alj2DSW-OtpvTnRXfDN-1">
          <mxGeometry x="919" y="224" width="51" height="68" as="geometry" />
        </mxCell>
        <mxCell id="4alj2DSW-OtpvTnRXfDN-41" value="" style="verticalLabelPosition=bottom;sketch=0;aspect=fixed;html=1;verticalAlign=top;strokeColor=none;align=center;outlineConnect=0;shape=mxgraph.citrix.reporting;" vertex="1" parent="4alj2DSW-OtpvTnRXfDN-1">
          <mxGeometry x="919" y="361" width="61.5" height="69" as="geometry" />
        </mxCell>
        <mxCell id="4alj2DSW-OtpvTnRXfDN-42" value="&lt;b&gt;&lt;font style=&quot;font-size: 15px;&quot;&gt;Reporting&lt;/font&gt;&lt;/b&gt;" style="text;html=1;align=center;verticalAlign=middle;whiteSpace=wrap;rounded=0;" vertex="1" parent="4alj2DSW-OtpvTnRXfDN-1">
          <mxGeometry x="925" y="430" width="60" height="30" as="geometry" />
        </mxCell>
        <mxCell id="4alj2DSW-OtpvTnRXfDN-43" value="&lt;b&gt;&lt;font style=&quot;font-size: 15px;&quot;&gt;Power BI&lt;/font&gt;&lt;/b&gt;" style="text;html=1;align=center;verticalAlign=middle;whiteSpace=wrap;rounded=0;" vertex="1" parent="4alj2DSW-OtpvTnRXfDN-1">
          <mxGeometry x="889" y="292" width="111" height="30" as="geometry" />
        </mxCell>
        <mxCell id="4alj2DSW-OtpvTnRXfDN-44" value="&lt;h2&gt;&lt;b&gt;&lt;font face=&quot;Verdana&quot; style=&quot;font-size: 26px;&quot;&gt;Datawarehouse Architecture&lt;/font&gt;&lt;/b&gt;&lt;/h2&gt;" style="text;html=1;align=center;verticalAlign=middle;whiteSpace=wrap;rounded=0;" vertex="1" parent="4alj2DSW-OtpvTnRXfDN-1">
          <mxGeometry x="190" y="50" width="450" height="30" as="geometry" />
        </mxCell>
        <mxCell id="KcJkAYCV4nJZRnU6Md5V-6" style="edgeStyle=orthogonalEdgeStyle;rounded=0;orthogonalLoop=1;jettySize=auto;html=1;exitX=1;exitY=0.5;exitDx=0;exitDy=0;entryX=0;entryY=0.5;entryDx=0;entryDy=0;strokeWidth=2;flowAnimation=1;" edge="1" parent="4alj2DSW-OtpvTnRXfDN-1" source="htEwjbkHfQDUpk_mrOoQ-0" target="KcJkAYCV4nJZRnU6Md5V-0">
          <mxGeometry relative="1" as="geometry" />
        </mxCell>
        <mxCell id="htEwjbkHfQDUpk_mrOoQ-0" value="&lt;font style=&quot;font-size: 15px;&quot; face=&quot;Verdana&quot;&gt;crm_sales_details&lt;/font&gt;" style="rounded=0;whiteSpace=wrap;html=1;fillColor=#CD7F32;strokeColor=#CD7F32;strokeWidth=3;" vertex="1" parent="4alj2DSW-OtpvTnRXfDN-1">
          <mxGeometry x="100" y="280" width="150" height="30" as="geometry" />
        </mxCell>
        <mxCell id="KcJkAYCV4nJZRnU6Md5V-8" style="edgeStyle=orthogonalEdgeStyle;rounded=0;orthogonalLoop=1;jettySize=auto;html=1;entryX=0;entryY=0.5;entryDx=0;entryDy=0;strokeWidth=2;flowAnimation=1;" edge="1" parent="4alj2DSW-OtpvTnRXfDN-1" source="htEwjbkHfQDUpk_mrOoQ-1" target="KcJkAYCV4nJZRnU6Md5V-1">
          <mxGeometry relative="1" as="geometry" />
        </mxCell>
        <mxCell id="htEwjbkHfQDUpk_mrOoQ-1" value="&lt;font style=&quot;font-size: 15px;&quot; face=&quot;Verdana&quot;&gt;crm_prd_info&lt;/font&gt;" style="rounded=0;whiteSpace=wrap;html=1;fillColor=#CD7F32;strokeColor=#CD7F32;strokeWidth=3;" vertex="1" parent="4alj2DSW-OtpvTnRXfDN-1">
          <mxGeometry x="100" y="400" width="150" height="30" as="geometry" />
        </mxCell>
        <mxCell id="KcJkAYCV4nJZRnU6Md5V-7" style="edgeStyle=orthogonalEdgeStyle;rounded=0;orthogonalLoop=1;jettySize=auto;html=1;strokeWidth=2;flowAnimation=1;" edge="1" parent="4alj2DSW-OtpvTnRXfDN-1" source="htEwjbkHfQDUpk_mrOoQ-2" target="KcJkAYCV4nJZRnU6Md5V-2">
          <mxGeometry relative="1" as="geometry" />
        </mxCell>
        <mxCell id="htEwjbkHfQDUpk_mrOoQ-2" value="&lt;font style=&quot;font-size: 15px;&quot; face=&quot;Verdana&quot;&gt;crm_cust_info&lt;/font&gt;" style="rounded=0;whiteSpace=wrap;html=1;fillColor=#CD7F32;strokeColor=#CD7F32;strokeWidth=3;" vertex="1" parent="4alj2DSW-OtpvTnRXfDN-1">
          <mxGeometry x="100" y="343" width="150" height="30" as="geometry" />
        </mxCell>
        <mxCell id="KcJkAYCV4nJZRnU6Md5V-9" style="edgeStyle=orthogonalEdgeStyle;rounded=0;orthogonalLoop=1;jettySize=auto;html=1;strokeWidth=2;flowAnimation=1;" edge="1" parent="4alj2DSW-OtpvTnRXfDN-1" source="htEwjbkHfQDUpk_mrOoQ-3" target="KcJkAYCV4nJZRnU6Md5V-3">
          <mxGeometry relative="1" as="geometry" />
        </mxCell>
        <mxCell id="htEwjbkHfQDUpk_mrOoQ-3" value="&lt;font style=&quot;font-size: 15px;&quot; face=&quot;Verdana&quot;&gt;erp_cust_az12&lt;/font&gt;" style="rounded=0;whiteSpace=wrap;html=1;fillColor=#CD7F32;strokeColor=#CD7F32;strokeWidth=3;" vertex="1" parent="4alj2DSW-OtpvTnRXfDN-1">
          <mxGeometry x="100" y="520" width="150" height="30" as="geometry" />
        </mxCell>
        <mxCell id="KcJkAYCV4nJZRnU6Md5V-11" style="edgeStyle=orthogonalEdgeStyle;rounded=0;orthogonalLoop=1;jettySize=auto;html=1;entryX=0;entryY=0.5;entryDx=0;entryDy=0;strokeWidth=2;flowAnimation=1;" edge="1" parent="4alj2DSW-OtpvTnRXfDN-1" source="htEwjbkHfQDUpk_mrOoQ-4" target="KcJkAYCV4nJZRnU6Md5V-4">
          <mxGeometry relative="1" as="geometry" />
        </mxCell>
        <mxCell id="htEwjbkHfQDUpk_mrOoQ-4" value="&lt;font style=&quot;font-size: 15px;&quot; face=&quot;Verdana&quot;&gt;erp_px_cat_g1v2&lt;/font&gt;" style="rounded=0;whiteSpace=wrap;html=1;fillColor=#CD7F32;strokeColor=#CD7F32;strokeWidth=3;" vertex="1" parent="4alj2DSW-OtpvTnRXfDN-1">
          <mxGeometry x="100" y="640" width="150" height="30" as="geometry" />
        </mxCell>
        <mxCell id="KcJkAYCV4nJZRnU6Md5V-10" style="edgeStyle=orthogonalEdgeStyle;rounded=0;orthogonalLoop=1;jettySize=auto;html=1;entryX=0;entryY=0.5;entryDx=0;entryDy=0;strokeWidth=2;flowAnimation=1;" edge="1" parent="4alj2DSW-OtpvTnRXfDN-1" source="htEwjbkHfQDUpk_mrOoQ-5" target="KcJkAYCV4nJZRnU6Md5V-5">
          <mxGeometry relative="1" as="geometry" />
        </mxCell>
        <mxCell id="htEwjbkHfQDUpk_mrOoQ-5" value="&lt;font style=&quot;font-size: 15px;&quot; face=&quot;Verdana&quot;&gt;erp_loc_a101&lt;/font&gt;" style="rounded=0;whiteSpace=wrap;html=1;fillColor=#CD7F32;strokeColor=#CD7F32;strokeWidth=3;" vertex="1" parent="4alj2DSW-OtpvTnRXfDN-1">
          <mxGeometry x="100" y="580" width="150" height="30" as="geometry" />
        </mxCell>
        <mxCell id="htEwjbkHfQDUpk_mrOoQ-6" value="" style="endArrow=classic;html=1;rounded=0;exitX=0.969;exitY=-0.025;exitDx=0;exitDy=0;exitPerimeter=0;flowAnimation=1;" edge="1" parent="4alj2DSW-OtpvTnRXfDN-1">
          <mxGeometry width="50" height="50" relative="1" as="geometry">
            <mxPoint x="10.003739999999889" y="360" as="sourcePoint" />
            <mxPoint x="100" y="296" as="targetPoint" />
            <Array as="points">
              <mxPoint x="60" y="360" />
              <mxPoint x="60" y="296" />
            </Array>
          </mxGeometry>
        </mxCell>
        <mxCell id="htEwjbkHfQDUpk_mrOoQ-7" value="" style="endArrow=classic;html=1;rounded=0;exitX=1.062;exitY=0;exitDx=0;exitDy=0;exitPerimeter=0;flowAnimation=1;" edge="1" parent="4alj2DSW-OtpvTnRXfDN-1" source="4alj2DSW-OtpvTnRXfDN-15">
          <mxGeometry width="50" height="50" relative="1" as="geometry">
            <mxPoint x="60" y="414" as="sourcePoint" />
            <mxPoint x="100" y="360" as="targetPoint" />
            <Array as="points">
              <mxPoint x="60" y="360" />
            </Array>
          </mxGeometry>
        </mxCell>
        <mxCell id="htEwjbkHfQDUpk_mrOoQ-8" value="" style="endArrow=classic;html=1;rounded=0;exitX=1.154;exitY=0;exitDx=0;exitDy=0;exitPerimeter=0;entryX=0;entryY=0.5;entryDx=0;entryDy=0;flowAnimation=1;" edge="1" parent="4alj2DSW-OtpvTnRXfDN-1" source="4alj2DSW-OtpvTnRXfDN-15" target="htEwjbkHfQDUpk_mrOoQ-1">
          <mxGeometry width="50" height="50" relative="1" as="geometry">
            <mxPoint x="60" y="384" as="sourcePoint" />
            <mxPoint x="149.99626000000012" y="320" as="targetPoint" />
            <Array as="points">
              <mxPoint x="60" y="360" />
              <mxPoint x="60" y="415" />
            </Array>
          </mxGeometry>
        </mxCell>
        <mxCell id="htEwjbkHfQDUpk_mrOoQ-10" value="" style="endArrow=classic;html=1;rounded=0;exitX=0.969;exitY=-0.025;exitDx=0;exitDy=0;exitPerimeter=0;flowAnimation=1;" edge="1" parent="4alj2DSW-OtpvTnRXfDN-1">
          <mxGeometry width="50" height="50" relative="1" as="geometry">
            <mxPoint x="8.003739999999894" y="598.5" as="sourcePoint" />
            <mxPoint x="98" y="534.5" as="targetPoint" />
            <Array as="points">
              <mxPoint x="58" y="598.5" />
              <mxPoint x="58" y="534.5" />
            </Array>
          </mxGeometry>
        </mxCell>
        <mxCell id="htEwjbkHfQDUpk_mrOoQ-11" value="" style="endArrow=classic;html=1;rounded=0;exitX=1.062;exitY=0;exitDx=0;exitDy=0;exitPerimeter=0;flowAnimation=1;" edge="1" parent="4alj2DSW-OtpvTnRXfDN-1">
          <mxGeometry width="50" height="50" relative="1" as="geometry">
            <mxPoint x="5" y="598.5" as="sourcePoint" />
            <mxPoint x="98" y="598.5" as="targetPoint" />
            <Array as="points">
              <mxPoint x="58" y="598.5" />
            </Array>
          </mxGeometry>
        </mxCell>
        <mxCell id="htEwjbkHfQDUpk_mrOoQ-12" value="" style="endArrow=classic;html=1;rounded=0;exitX=1.154;exitY=0;exitDx=0;exitDy=0;exitPerimeter=0;entryX=0;entryY=0.5;entryDx=0;entryDy=0;flowAnimation=1;" edge="1" parent="4alj2DSW-OtpvTnRXfDN-1">
          <mxGeometry width="50" height="50" relative="1" as="geometry">
            <mxPoint x="8" y="598.5" as="sourcePoint" />
            <mxPoint x="98" y="653.5" as="targetPoint" />
            <Array as="points">
              <mxPoint x="58" y="598.5" />
              <mxPoint x="58" y="653.5" />
            </Array>
          </mxGeometry>
        </mxCell>
        <mxCell id="KcJkAYCV4nJZRnU6Md5V-0" value="&lt;font style=&quot;font-size: 15px;&quot; face=&quot;Verdana&quot;&gt;crm_sales_details&lt;/font&gt;" style="rounded=0;whiteSpace=wrap;html=1;fillColor=#C0C0C0;strokeColor=#C0C0C0;strokeWidth=3;" vertex="1" parent="4alj2DSW-OtpvTnRXfDN-1">
          <mxGeometry x="350" y="280" width="150" height="30" as="geometry" />
        </mxCell>
        <mxCell id="KcJkAYCV4nJZRnU6Md5V-1" value="&lt;font style=&quot;font-size: 15px;&quot; face=&quot;Verdana&quot;&gt;crm_prd_info&lt;/font&gt;" style="rounded=0;whiteSpace=wrap;html=1;fillColor=#C0C0C0;strokeColor=#C0C0C0;strokeWidth=3;" vertex="1" parent="4alj2DSW-OtpvTnRXfDN-1">
          <mxGeometry x="350" y="400" width="150" height="30" as="geometry" />
        </mxCell>
        <mxCell id="KcJkAYCV4nJZRnU6Md5V-2" value="&lt;font style=&quot;font-size: 15px;&quot; face=&quot;Verdana&quot;&gt;crm_cust_info&lt;/font&gt;" style="rounded=0;whiteSpace=wrap;html=1;fillColor=#C0C0C0;strokeColor=#C0C0C0;strokeWidth=3;" vertex="1" parent="4alj2DSW-OtpvTnRXfDN-1">
          <mxGeometry x="350" y="343" width="150" height="30" as="geometry" />
        </mxCell>
        <mxCell id="KcJkAYCV4nJZRnU6Md5V-3" value="&lt;font style=&quot;font-size: 15px;&quot; face=&quot;Verdana&quot;&gt;erp_cust_az12&lt;/font&gt;" style="rounded=0;whiteSpace=wrap;html=1;fillColor=#C0C0C0;strokeColor=#C0C0C0;strokeWidth=3;" vertex="1" parent="4alj2DSW-OtpvTnRXfDN-1">
          <mxGeometry x="350" y="520" width="150" height="30" as="geometry" />
        </mxCell>
        <mxCell id="KcJkAYCV4nJZRnU6Md5V-4" value="&lt;font style=&quot;font-size: 15px;&quot; face=&quot;Verdana&quot;&gt;erp_px_cat_g1v2&lt;/font&gt;" style="rounded=0;whiteSpace=wrap;html=1;fillColor=#C0C0C0;strokeColor=#C0C0C0;strokeWidth=3;" vertex="1" parent="4alj2DSW-OtpvTnRXfDN-1">
          <mxGeometry x="350" y="640" width="150" height="30" as="geometry" />
        </mxCell>
        <mxCell id="KcJkAYCV4nJZRnU6Md5V-5" value="&lt;font style=&quot;font-size: 15px;&quot; face=&quot;Verdana&quot;&gt;erp_loc_a101&lt;/font&gt;" style="rounded=0;whiteSpace=wrap;html=1;fillColor=#C0C0C0;strokeColor=#C0C0C0;strokeWidth=3;" vertex="1" parent="4alj2DSW-OtpvTnRXfDN-1">
          <mxGeometry x="350" y="580" width="150" height="30" as="geometry" />
        </mxCell>
        <mxCell id="KcJkAYCV4nJZRnU6Md5V-12" value="&lt;font&gt;&lt;b&gt;DATA CLEANSING&lt;/b&gt;&lt;/font&gt;" style="text;strokeColor=none;fillColor=none;align=left;verticalAlign=middle;spacingLeft=4;spacingRight=4;overflow=hidden;points=[[0,0.5],[1,0.5]];portConstraint=eastwest;rotatable=0;whiteSpace=wrap;html=1;direction=north;horizontal=0;fontSize=11;" vertex="1" parent="4alj2DSW-OtpvTnRXfDN-1">
          <mxGeometry x="280" y="420" width="30" height="108" as="geometry" />
        </mxCell>
      </root>
    </mxGraphModel>
  </diagram>
  <diagram id="hBT_ZaDB0rn1aEzvDp5Z" name="Data Integration">
    <mxGraphModel dx="2594" dy="1694" grid="1" gridSize="10" guides="1" tooltips="1" connect="1" arrows="1" fold="1" page="0" pageScale="1" pageWidth="850" pageHeight="1100" math="0" shadow="0">
      <root>
        <mxCell id="0" />
        <mxCell id="1" parent="0" />
        <mxCell id="xzmJR7w3SrO1M_1E0elc-19" value="" style="group" vertex="1" connectable="0" parent="1">
          <mxGeometry x="-70" y="-190" width="140" height="270" as="geometry" />
        </mxCell>
        <mxCell id="xzmJR7w3SrO1M_1E0elc-1" value="crm_cus_info" style="swimlane;fontStyle=0;childLayout=stackLayout;horizontal=1;startSize=30;horizontalStack=0;resizeParent=1;resizeParentMax=0;resizeLast=0;collapsible=1;marginBottom=0;whiteSpace=wrap;html=1;rounded=1;shadow=0;glass=0;swimlaneLine=1;fillColor=#dae8fc;strokeColor=#6c8ebf;" vertex="1" parent="xzmJR7w3SrO1M_1E0elc-19">
          <mxGeometry y="30" width="140" height="240" as="geometry" />
        </mxCell>
        <mxCell id="xzmJR7w3SrO1M_1E0elc-2" value="&lt;b&gt;cst_id&lt;span style=&quot;white-space: pre;&quot;&gt;&#x9;&lt;/span&gt;&lt;span style=&quot;white-space: pre;&quot;&gt;&#x9;&lt;/span&gt;&lt;span style=&quot;white-space: pre;&quot;&gt;&#x9;&lt;/span&gt;PK&lt;/b&gt;" style="text;strokeColor=none;fillColor=none;align=left;verticalAlign=middle;spacingLeft=4;spacingRight=4;overflow=hidden;points=[[0,0.5],[1,0.5]];portConstraint=eastwest;rotatable=0;whiteSpace=wrap;html=1;" vertex="1" parent="xzmJR7w3SrO1M_1E0elc-1">
          <mxGeometry y="30" width="140" height="30" as="geometry" />
        </mxCell>
        <mxCell id="xzmJR7w3SrO1M_1E0elc-3" value="&lt;b&gt;cst_key&lt;span style=&quot;white-space: pre;&quot;&gt;&#x9;&lt;/span&gt;&lt;span style=&quot;white-space: pre;&quot;&gt;&#x9;&lt;span style=&quot;white-space: pre;&quot;&gt;&#x9;&lt;/span&gt;PK&lt;/span&gt;&lt;/b&gt;" style="text;strokeColor=none;fillColor=none;align=left;verticalAlign=middle;spacingLeft=4;spacingRight=4;overflow=hidden;points=[[0,0.5],[1,0.5]];portConstraint=eastwest;rotatable=0;whiteSpace=wrap;html=1;" vertex="1" parent="xzmJR7w3SrO1M_1E0elc-1">
          <mxGeometry y="60" width="140" height="30" as="geometry" />
        </mxCell>
        <mxCell id="xzmJR7w3SrO1M_1E0elc-4" value="cst_firstname" style="text;strokeColor=none;fillColor=none;align=left;verticalAlign=middle;spacingLeft=4;spacingRight=4;overflow=hidden;points=[[0,0.5],[1,0.5]];portConstraint=eastwest;rotatable=0;whiteSpace=wrap;html=1;" vertex="1" parent="xzmJR7w3SrO1M_1E0elc-1">
          <mxGeometry y="90" width="140" height="30" as="geometry" />
        </mxCell>
        <mxCell id="xzmJR7w3SrO1M_1E0elc-5" value="cst_lastname" style="text;strokeColor=none;fillColor=none;align=left;verticalAlign=middle;spacingLeft=4;spacingRight=4;overflow=hidden;points=[[0,0.5],[1,0.5]];portConstraint=eastwest;rotatable=0;whiteSpace=wrap;html=1;" vertex="1" parent="xzmJR7w3SrO1M_1E0elc-1">
          <mxGeometry y="120" width="140" height="30" as="geometry" />
        </mxCell>
        <mxCell id="xzmJR7w3SrO1M_1E0elc-6" value="cst_marital_status" style="text;strokeColor=none;fillColor=none;align=left;verticalAlign=middle;spacingLeft=4;spacingRight=4;overflow=hidden;points=[[0,0.5],[1,0.5]];portConstraint=eastwest;rotatable=0;whiteSpace=wrap;html=1;" vertex="1" parent="xzmJR7w3SrO1M_1E0elc-1">
          <mxGeometry y="150" width="140" height="30" as="geometry" />
        </mxCell>
        <mxCell id="xzmJR7w3SrO1M_1E0elc-7" value="cst_gndr" style="text;strokeColor=none;fillColor=none;align=left;verticalAlign=middle;spacingLeft=4;spacingRight=4;overflow=hidden;points=[[0,0.5],[1,0.5]];portConstraint=eastwest;rotatable=0;whiteSpace=wrap;html=1;" vertex="1" parent="xzmJR7w3SrO1M_1E0elc-1">
          <mxGeometry y="180" width="140" height="30" as="geometry" />
        </mxCell>
        <mxCell id="xzmJR7w3SrO1M_1E0elc-8" value="cst_create_date" style="text;strokeColor=none;fillColor=none;align=left;verticalAlign=middle;spacingLeft=4;spacingRight=4;overflow=hidden;points=[[0,0.5],[1,0.5]];portConstraint=eastwest;rotatable=0;whiteSpace=wrap;html=1;" vertex="1" parent="xzmJR7w3SrO1M_1E0elc-1">
          <mxGeometry y="210" width="140" height="30" as="geometry" />
        </mxCell>
        <mxCell id="xzmJR7w3SrO1M_1E0elc-9" value="&lt;i style=&quot;&quot;&gt;&lt;font style=&quot;font-size: 10px;&quot;&gt;CRM CUSTOMER INFO&lt;/font&gt;&lt;/i&gt;" style="text;html=1;align=center;verticalAlign=middle;whiteSpace=wrap;rounded=0;" vertex="1" parent="xzmJR7w3SrO1M_1E0elc-19">
          <mxGeometry width="140" height="30" as="geometry" />
        </mxCell>
        <mxCell id="xzmJR7w3SrO1M_1E0elc-21" value="" style="group" vertex="1" connectable="0" parent="1">
          <mxGeometry x="-70" y="120" width="140" height="270" as="geometry" />
        </mxCell>
        <mxCell id="xzmJR7w3SrO1M_1E0elc-10" value="crm_prd_info" style="swimlane;fontStyle=0;childLayout=stackLayout;horizontal=1;startSize=30;horizontalStack=0;resizeParent=1;resizeParentMax=0;resizeLast=0;collapsible=1;marginBottom=0;whiteSpace=wrap;html=1;rounded=1;shadow=0;glass=0;swimlaneLine=1;fillColor=#dae8fc;strokeColor=#6c8ebf;container=0;" vertex="1" parent="xzmJR7w3SrO1M_1E0elc-21">
          <mxGeometry y="30" width="140" height="240" as="geometry" />
        </mxCell>
        <mxCell id="xzmJR7w3SrO1M_1E0elc-18" value="&lt;span style=&quot;font-size: 10px;&quot;&gt;&lt;i&gt;CRM PRODUCT&lt;/i&gt;&lt;/span&gt;&lt;div&gt;&lt;span style=&quot;font-size: 10px;&quot;&gt;&lt;i&gt;&amp;amp; HISTORY INFO&lt;/i&gt;&lt;/span&gt;&lt;/div&gt;" style="text;html=1;align=center;verticalAlign=middle;whiteSpace=wrap;rounded=0;container=0;" vertex="1" parent="xzmJR7w3SrO1M_1E0elc-21">
          <mxGeometry width="140" height="30" as="geometry" />
        </mxCell>
        <mxCell id="xzmJR7w3SrO1M_1E0elc-11" value="prd_id&lt;span style=&quot;white-space: pre;&quot;&gt;&#x9;&lt;/span&gt;&lt;span style=&quot;white-space: pre;&quot;&gt;&#x9;&lt;/span&gt;&lt;span style=&quot;white-space: pre;&quot;&gt;&#x9;&lt;/span&gt;" style="text;strokeColor=none;fillColor=none;align=left;verticalAlign=middle;spacingLeft=4;spacingRight=4;overflow=hidden;points=[[0,0.5],[1,0.5]];portConstraint=eastwest;rotatable=0;whiteSpace=wrap;html=1;container=0;" vertex="1" parent="xzmJR7w3SrO1M_1E0elc-21">
          <mxGeometry y="60" width="140" height="30" as="geometry" />
        </mxCell>
        <mxCell id="xzmJR7w3SrO1M_1E0elc-12" value="&lt;b&gt;prd_key&lt;span style=&quot;white-space: pre;&quot;&gt;&#x9;&lt;/span&gt;&lt;span style=&quot;white-space: pre;&quot;&gt;&#x9;&lt;/span&gt;&lt;span style=&quot;white-space: pre;&quot;&gt;&#x9;&lt;/span&gt;PK&lt;/b&gt;" style="text;strokeColor=none;fillColor=none;align=left;verticalAlign=middle;spacingLeft=4;spacingRight=4;overflow=hidden;points=[[0,0.5],[1,0.5]];portConstraint=eastwest;rotatable=0;whiteSpace=wrap;html=1;container=0;" vertex="1" parent="xzmJR7w3SrO1M_1E0elc-21">
          <mxGeometry y="90" width="140" height="30" as="geometry" />
        </mxCell>
        <mxCell id="xzmJR7w3SrO1M_1E0elc-13" value="prd_nm" style="text;strokeColor=none;fillColor=none;align=left;verticalAlign=middle;spacingLeft=4;spacingRight=4;overflow=hidden;points=[[0,0.5],[1,0.5]];portConstraint=eastwest;rotatable=0;whiteSpace=wrap;html=1;container=0;" vertex="1" parent="xzmJR7w3SrO1M_1E0elc-21">
          <mxGeometry y="120" width="140" height="30" as="geometry" />
        </mxCell>
        <mxCell id="xzmJR7w3SrO1M_1E0elc-14" value="prd_cost" style="text;strokeColor=none;fillColor=none;align=left;verticalAlign=middle;spacingLeft=4;spacingRight=4;overflow=hidden;points=[[0,0.5],[1,0.5]];portConstraint=eastwest;rotatable=0;whiteSpace=wrap;html=1;container=0;" vertex="1" parent="xzmJR7w3SrO1M_1E0elc-21">
          <mxGeometry y="150" width="140" height="30" as="geometry" />
        </mxCell>
        <mxCell id="xzmJR7w3SrO1M_1E0elc-15" value="prd_line" style="text;strokeColor=none;fillColor=none;align=left;verticalAlign=middle;spacingLeft=4;spacingRight=4;overflow=hidden;points=[[0,0.5],[1,0.5]];portConstraint=eastwest;rotatable=0;whiteSpace=wrap;html=1;container=0;" vertex="1" parent="xzmJR7w3SrO1M_1E0elc-21">
          <mxGeometry y="180" width="140" height="30" as="geometry" />
        </mxCell>
        <mxCell id="xzmJR7w3SrO1M_1E0elc-16" value="prd_start_dt" style="text;strokeColor=none;fillColor=none;align=left;verticalAlign=middle;spacingLeft=4;spacingRight=4;overflow=hidden;points=[[0,0.5],[1,0.5]];portConstraint=eastwest;rotatable=0;whiteSpace=wrap;html=1;container=0;" vertex="1" parent="xzmJR7w3SrO1M_1E0elc-21">
          <mxGeometry y="210" width="140" height="30" as="geometry" />
        </mxCell>
        <mxCell id="xzmJR7w3SrO1M_1E0elc-17" value="prd_end_dt" style="text;strokeColor=none;fillColor=none;align=left;verticalAlign=middle;spacingLeft=4;spacingRight=4;overflow=hidden;points=[[0,0.5],[1,0.5]];portConstraint=eastwest;rotatable=0;whiteSpace=wrap;html=1;container=0;" vertex="1" parent="xzmJR7w3SrO1M_1E0elc-21">
          <mxGeometry y="240" width="140" height="30" as="geometry" />
        </mxCell>
        <mxCell id="xzmJR7w3SrO1M_1E0elc-35" value="crm_sales_details" style="swimlane;fontStyle=0;childLayout=stackLayout;horizontal=1;startSize=30;horizontalStack=0;resizeParent=1;resizeParentMax=0;resizeLast=0;collapsible=1;marginBottom=0;whiteSpace=wrap;html=1;rounded=1;shadow=0;glass=0;swimlaneLine=1;fillColor=#dae8fc;strokeColor=#6c8ebf;" vertex="1" parent="1">
          <mxGeometry x="-70" y="460" width="140" height="300" as="geometry" />
        </mxCell>
        <mxCell id="xzmJR7w3SrO1M_1E0elc-36" value="&lt;b&gt;sls_ord_num&lt;span style=&quot;white-space: pre;&quot;&gt;&#x9;&lt;/span&gt;&lt;span style=&quot;white-space: pre;&quot;&gt;&#x9;&lt;/span&gt;&lt;/b&gt;&lt;b&gt;PK&lt;/b&gt;" style="text;strokeColor=none;fillColor=none;align=left;verticalAlign=middle;spacingLeft=4;spacingRight=4;overflow=hidden;points=[[0,0.5],[1,0.5]];portConstraint=eastwest;rotatable=0;whiteSpace=wrap;html=1;" vertex="1" parent="xzmJR7w3SrO1M_1E0elc-35">
          <mxGeometry y="30" width="140" height="30" as="geometry" />
        </mxCell>
        <mxCell id="xzmJR7w3SrO1M_1E0elc-37" value="sls_prd_key&lt;span style=&quot;white-space: pre;&quot;&gt;&#x9;&lt;/span&gt;&lt;span style=&quot;white-space: pre;&quot;&gt;&#x9;&lt;/span&gt;FK" style="text;strokeColor=none;fillColor=none;align=left;verticalAlign=middle;spacingLeft=4;spacingRight=4;overflow=hidden;points=[[0,0.5],[1,0.5]];portConstraint=eastwest;rotatable=0;whiteSpace=wrap;html=1;" vertex="1" parent="xzmJR7w3SrO1M_1E0elc-35">
          <mxGeometry y="60" width="140" height="30" as="geometry" />
        </mxCell>
        <mxCell id="xzmJR7w3SrO1M_1E0elc-38" value="sls_cust_id&lt;span style=&quot;white-space: pre;&quot;&gt;&#x9;&lt;/span&gt;&lt;span style=&quot;white-space: pre;&quot;&gt;&#x9;&lt;/span&gt;FK" style="text;strokeColor=none;fillColor=none;align=left;verticalAlign=middle;spacingLeft=4;spacingRight=4;overflow=hidden;points=[[0,0.5],[1,0.5]];portConstraint=eastwest;rotatable=0;whiteSpace=wrap;html=1;" vertex="1" parent="xzmJR7w3SrO1M_1E0elc-35">
          <mxGeometry y="90" width="140" height="30" as="geometry" />
        </mxCell>
        <mxCell id="xzmJR7w3SrO1M_1E0elc-39" value="sls_order_dt" style="text;strokeColor=none;fillColor=none;align=left;verticalAlign=middle;spacingLeft=4;spacingRight=4;overflow=hidden;points=[[0,0.5],[1,0.5]];portConstraint=eastwest;rotatable=0;whiteSpace=wrap;html=1;" vertex="1" parent="xzmJR7w3SrO1M_1E0elc-35">
          <mxGeometry y="120" width="140" height="30" as="geometry" />
        </mxCell>
        <mxCell id="xzmJR7w3SrO1M_1E0elc-40" value="sls_ship_dt" style="text;strokeColor=none;fillColor=none;align=left;verticalAlign=middle;spacingLeft=4;spacingRight=4;overflow=hidden;points=[[0,0.5],[1,0.5]];portConstraint=eastwest;rotatable=0;whiteSpace=wrap;html=1;" vertex="1" parent="xzmJR7w3SrO1M_1E0elc-35">
          <mxGeometry y="150" width="140" height="30" as="geometry" />
        </mxCell>
        <mxCell id="xzmJR7w3SrO1M_1E0elc-41" value="sls_due_dt" style="text;strokeColor=none;fillColor=none;align=left;verticalAlign=middle;spacingLeft=4;spacingRight=4;overflow=hidden;points=[[0,0.5],[1,0.5]];portConstraint=eastwest;rotatable=0;whiteSpace=wrap;html=1;" vertex="1" parent="xzmJR7w3SrO1M_1E0elc-35">
          <mxGeometry y="180" width="140" height="30" as="geometry" />
        </mxCell>
        <mxCell id="xzmJR7w3SrO1M_1E0elc-42" value="sls_sales" style="text;strokeColor=none;fillColor=none;align=left;verticalAlign=middle;spacingLeft=4;spacingRight=4;overflow=hidden;points=[[0,0.5],[1,0.5]];portConstraint=eastwest;rotatable=0;whiteSpace=wrap;html=1;" vertex="1" parent="xzmJR7w3SrO1M_1E0elc-35">
          <mxGeometry y="210" width="140" height="30" as="geometry" />
        </mxCell>
        <mxCell id="xzmJR7w3SrO1M_1E0elc-44" value="sls_quantity" style="text;strokeColor=none;fillColor=none;align=left;verticalAlign=middle;spacingLeft=4;spacingRight=4;overflow=hidden;points=[[0,0.5],[1,0.5]];portConstraint=eastwest;rotatable=0;whiteSpace=wrap;html=1;" vertex="1" parent="xzmJR7w3SrO1M_1E0elc-35">
          <mxGeometry y="240" width="140" height="30" as="geometry" />
        </mxCell>
        <mxCell id="xzmJR7w3SrO1M_1E0elc-45" value="sls_price" style="text;strokeColor=none;fillColor=none;align=left;verticalAlign=middle;spacingLeft=4;spacingRight=4;overflow=hidden;points=[[0,0.5],[1,0.5]];portConstraint=eastwest;rotatable=0;whiteSpace=wrap;html=1;" vertex="1" parent="xzmJR7w3SrO1M_1E0elc-35">
          <mxGeometry y="270" width="140" height="30" as="geometry" />
        </mxCell>
        <mxCell id="xzmJR7w3SrO1M_1E0elc-43" value="&lt;i style=&quot;font-size: 10px;&quot;&gt;CRM SALES DETAILS&lt;/i&gt;" style="text;html=1;align=center;verticalAlign=middle;whiteSpace=wrap;rounded=0;" vertex="1" parent="1">
          <mxGeometry x="-70" y="430" width="140" height="30" as="geometry" />
        </mxCell>
        <mxCell id="xzmJR7w3SrO1M_1E0elc-46" style="edgeStyle=orthogonalEdgeStyle;rounded=0;orthogonalLoop=1;jettySize=auto;html=1;entryX=1;entryY=0.5;entryDx=0;entryDy=0;" edge="1" parent="1" source="xzmJR7w3SrO1M_1E0elc-38" target="xzmJR7w3SrO1M_1E0elc-2">
          <mxGeometry relative="1" as="geometry">
            <Array as="points">
              <mxPoint x="110" y="565" />
              <mxPoint x="110" y="-115" />
            </Array>
          </mxGeometry>
        </mxCell>
        <mxCell id="xzmJR7w3SrO1M_1E0elc-47" style="edgeStyle=orthogonalEdgeStyle;rounded=0;orthogonalLoop=1;jettySize=auto;html=1;entryX=0;entryY=0.5;entryDx=0;entryDy=0;" edge="1" parent="1" source="xzmJR7w3SrO1M_1E0elc-37" target="xzmJR7w3SrO1M_1E0elc-12">
          <mxGeometry relative="1" as="geometry" />
        </mxCell>
        <mxCell id="xzmJR7w3SrO1M_1E0elc-48" value="erp_cust_az12" style="swimlane;fontStyle=0;childLayout=stackLayout;horizontal=1;startSize=30;horizontalStack=0;resizeParent=1;resizeParentMax=0;resizeLast=0;collapsible=1;marginBottom=0;whiteSpace=wrap;html=1;rounded=1;shadow=0;glass=0;swimlaneLine=1;fillColor=#f8cecc;strokeColor=#b85450;" vertex="1" parent="1">
          <mxGeometry x="410" y="-30" width="140" height="120" as="geometry" />
        </mxCell>
        <mxCell id="xzmJR7w3SrO1M_1E0elc-49" value="&lt;b&gt;cid&lt;/b&gt;&lt;span style=&quot;font-weight: bold; white-space: pre;&quot;&gt;&#x9;&lt;/span&gt;&lt;span style=&quot;font-weight: bold; white-space: pre;&quot;&gt;&#x9;&lt;/span&gt;&lt;span style=&quot;white-space: pre;&quot;&gt;&#x9;&lt;/span&gt;&lt;span style=&quot;white-space: pre;&quot;&gt;&#x9;&lt;/span&gt;&lt;b&gt;PK&lt;/b&gt;" style="text;strokeColor=none;fillColor=none;align=left;verticalAlign=middle;spacingLeft=4;spacingRight=4;overflow=hidden;points=[[0,0.5],[1,0.5]];portConstraint=eastwest;rotatable=0;whiteSpace=wrap;html=1;" vertex="1" parent="xzmJR7w3SrO1M_1E0elc-48">
          <mxGeometry y="30" width="140" height="30" as="geometry" />
        </mxCell>
        <mxCell id="xzmJR7w3SrO1M_1E0elc-56" value="bdate" style="text;strokeColor=none;fillColor=none;align=left;verticalAlign=middle;spacingLeft=4;spacingRight=4;overflow=hidden;points=[[0,0.5],[1,0.5]];portConstraint=eastwest;rotatable=0;whiteSpace=wrap;html=1;" vertex="1" parent="xzmJR7w3SrO1M_1E0elc-48">
          <mxGeometry y="60" width="140" height="30" as="geometry" />
        </mxCell>
        <mxCell id="xzmJR7w3SrO1M_1E0elc-57" value="gen" style="text;strokeColor=none;fillColor=none;align=left;verticalAlign=middle;spacingLeft=4;spacingRight=4;overflow=hidden;points=[[0,0.5],[1,0.5]];portConstraint=eastwest;rotatable=0;whiteSpace=wrap;html=1;" vertex="1" parent="xzmJR7w3SrO1M_1E0elc-48">
          <mxGeometry y="90" width="140" height="30" as="geometry" />
        </mxCell>
        <mxCell id="xzmJR7w3SrO1M_1E0elc-58" value="&lt;span style=&quot;font-size: 10px;&quot;&gt;&lt;i&gt;ERP CUSTOMER EXTRA INFO&lt;/i&gt;&lt;/span&gt;" style="text;html=1;align=center;verticalAlign=middle;whiteSpace=wrap;rounded=0;" vertex="1" parent="1">
          <mxGeometry x="410" y="-60" width="140" height="30" as="geometry" />
        </mxCell>
        <mxCell id="xzmJR7w3SrO1M_1E0elc-61" style="edgeStyle=orthogonalEdgeStyle;rounded=0;orthogonalLoop=1;jettySize=auto;html=1;entryX=1;entryY=0.5;entryDx=0;entryDy=0;" edge="1" parent="1" source="xzmJR7w3SrO1M_1E0elc-49" target="xzmJR7w3SrO1M_1E0elc-3">
          <mxGeometry relative="1" as="geometry" />
        </mxCell>
        <mxCell id="xzmJR7w3SrO1M_1E0elc-62" value="erp_loc_a101_external" style="swimlane;fontStyle=0;childLayout=stackLayout;horizontal=1;startSize=30;horizontalStack=0;resizeParent=1;resizeParentMax=0;resizeLast=0;collapsible=1;marginBottom=0;whiteSpace=wrap;html=1;rounded=1;shadow=0;glass=0;swimlaneLine=1;fillColor=#f8cecc;strokeColor=#b85450;" vertex="1" parent="1">
          <mxGeometry x="410" y="180" width="140" height="90" as="geometry" />
        </mxCell>
        <mxCell id="xzmJR7w3SrO1M_1E0elc-63" value="&lt;b&gt;cid&lt;/b&gt;&lt;span style=&quot;font-weight: bold; white-space: pre;&quot;&gt;&#x9;&lt;/span&gt;&lt;span style=&quot;font-weight: bold; white-space: pre;&quot;&gt;&#x9;&lt;/span&gt;&lt;span style=&quot;white-space: pre;&quot;&gt;&#x9;&lt;/span&gt;&lt;span style=&quot;white-space: pre;&quot;&gt;&#x9;&lt;/span&gt;&lt;b&gt;PK&lt;/b&gt;" style="text;strokeColor=none;fillColor=none;align=left;verticalAlign=middle;spacingLeft=4;spacingRight=4;overflow=hidden;points=[[0,0.5],[1,0.5]];portConstraint=eastwest;rotatable=0;whiteSpace=wrap;html=1;" vertex="1" parent="xzmJR7w3SrO1M_1E0elc-62">
          <mxGeometry y="30" width="140" height="30" as="geometry" />
        </mxCell>
        <mxCell id="xzmJR7w3SrO1M_1E0elc-64" value="cntry" style="text;strokeColor=none;fillColor=none;align=left;verticalAlign=middle;spacingLeft=4;spacingRight=4;overflow=hidden;points=[[0,0.5],[1,0.5]];portConstraint=eastwest;rotatable=0;whiteSpace=wrap;html=1;" vertex="1" parent="xzmJR7w3SrO1M_1E0elc-62">
          <mxGeometry y="60" width="140" height="30" as="geometry" />
        </mxCell>
        <mxCell id="xzmJR7w3SrO1M_1E0elc-66" value="&lt;span style=&quot;font-size: 10px;&quot;&gt;&lt;i&gt;ERP CUSTOMERS LOCATION&amp;nbsp;&lt;/i&gt;&lt;/span&gt;" style="text;html=1;align=center;verticalAlign=middle;whiteSpace=wrap;rounded=0;" vertex="1" parent="1">
          <mxGeometry x="410" y="150" width="140" height="30" as="geometry" />
        </mxCell>
        <mxCell id="xzmJR7w3SrO1M_1E0elc-67" value="erp_px_cat_g1v2" style="swimlane;fontStyle=0;childLayout=stackLayout;horizontal=1;startSize=30;horizontalStack=0;resizeParent=1;resizeParentMax=0;resizeLast=0;collapsible=1;marginBottom=0;whiteSpace=wrap;html=1;rounded=1;shadow=0;glass=0;swimlaneLine=1;fillColor=#f8cecc;strokeColor=#b85450;" vertex="1" parent="1">
          <mxGeometry x="410" y="360" width="140" height="150" as="geometry" />
        </mxCell>
        <mxCell id="xzmJR7w3SrO1M_1E0elc-68" value="&lt;b&gt;ID&lt;/b&gt;&lt;span style=&quot;font-weight: bold; white-space: pre;&quot;&gt;&#x9;&lt;/span&gt;&lt;span style=&quot;font-weight: bold; white-space: pre;&quot;&gt;&#x9;&lt;/span&gt;&lt;span style=&quot;white-space: pre;&quot;&gt;&#x9;&lt;/span&gt;&lt;span style=&quot;white-space: pre;&quot;&gt;&#x9;&lt;/span&gt;&lt;b&gt;PK&lt;/b&gt;" style="text;strokeColor=none;fillColor=none;align=left;verticalAlign=middle;spacingLeft=4;spacingRight=4;overflow=hidden;points=[[0,0.5],[1,0.5]];portConstraint=eastwest;rotatable=0;whiteSpace=wrap;html=1;" vertex="1" parent="xzmJR7w3SrO1M_1E0elc-67">
          <mxGeometry y="30" width="140" height="30" as="geometry" />
        </mxCell>
        <mxCell id="xzmJR7w3SrO1M_1E0elc-69" value="CAT" style="text;strokeColor=none;fillColor=none;align=left;verticalAlign=middle;spacingLeft=4;spacingRight=4;overflow=hidden;points=[[0,0.5],[1,0.5]];portConstraint=eastwest;rotatable=0;whiteSpace=wrap;html=1;" vertex="1" parent="xzmJR7w3SrO1M_1E0elc-67">
          <mxGeometry y="60" width="140" height="30" as="geometry" />
        </mxCell>
        <mxCell id="xzmJR7w3SrO1M_1E0elc-73" value="SUBCAT" style="text;strokeColor=none;fillColor=none;align=left;verticalAlign=middle;spacingLeft=4;spacingRight=4;overflow=hidden;points=[[0,0.5],[1,0.5]];portConstraint=eastwest;rotatable=0;whiteSpace=wrap;html=1;" vertex="1" parent="xzmJR7w3SrO1M_1E0elc-67">
          <mxGeometry y="90" width="140" height="30" as="geometry" />
        </mxCell>
        <mxCell id="xzmJR7w3SrO1M_1E0elc-74" value="MAINTENANCE" style="text;strokeColor=none;fillColor=none;align=left;verticalAlign=middle;spacingLeft=4;spacingRight=4;overflow=hidden;points=[[0,0.5],[1,0.5]];portConstraint=eastwest;rotatable=0;whiteSpace=wrap;html=1;" vertex="1" parent="xzmJR7w3SrO1M_1E0elc-67">
          <mxGeometry y="120" width="140" height="30" as="geometry" />
        </mxCell>
        <mxCell id="xzmJR7w3SrO1M_1E0elc-70" value="&lt;span style=&quot;font-size: 10px;&quot;&gt;&lt;i&gt;ERP PRODUCTS CATALOG&lt;/i&gt;&lt;/span&gt;" style="text;html=1;align=center;verticalAlign=middle;whiteSpace=wrap;rounded=0;" vertex="1" parent="1">
          <mxGeometry x="410" y="330" width="140" height="30" as="geometry" />
        </mxCell>
        <mxCell id="xzmJR7w3SrO1M_1E0elc-75" style="edgeStyle=orthogonalEdgeStyle;rounded=0;orthogonalLoop=1;jettySize=auto;html=1;entryX=1;entryY=0.5;entryDx=0;entryDy=0;exitX=0;exitY=0.5;exitDx=0;exitDy=0;" edge="1" parent="1" source="xzmJR7w3SrO1M_1E0elc-68" target="xzmJR7w3SrO1M_1E0elc-12">
          <mxGeometry relative="1" as="geometry">
            <Array as="points">
              <mxPoint x="170" y="405" />
              <mxPoint x="170" y="225" />
            </Array>
          </mxGeometry>
        </mxCell>
        <mxCell id="xzmJR7w3SrO1M_1E0elc-76" style="edgeStyle=orthogonalEdgeStyle;rounded=0;orthogonalLoop=1;jettySize=auto;html=1;entryX=1;entryY=0.5;entryDx=0;entryDy=0;" edge="1" parent="1" source="xzmJR7w3SrO1M_1E0elc-63" target="xzmJR7w3SrO1M_1E0elc-3">
          <mxGeometry relative="1" as="geometry" />
        </mxCell>
        <mxCell id="xzmJR7w3SrO1M_1E0elc-78" value="" style="rounded=0;whiteSpace=wrap;html=1;fillColor=none;strokeColor=#DAE8FC;strokeWidth=6;" vertex="1" parent="1">
          <mxGeometry x="-140" y="-210" width="290" height="990" as="geometry" />
        </mxCell>
        <mxCell id="xzmJR7w3SrO1M_1E0elc-79" value="" style="rounded=0;whiteSpace=wrap;html=1;strokeColor=#F8CECC;fillColor=none;strokeWidth=6;" vertex="1" parent="1">
          <mxGeometry x="330" y="-73.75" width="310" height="613.75" as="geometry" />
        </mxCell>
        <mxCell id="xzmJR7w3SrO1M_1E0elc-80" value="&lt;font style=&quot;font-size: 16px;&quot;&gt;&lt;b&gt;SOURCE_CRM&lt;/b&gt;&lt;/font&gt;" style="text;html=1;align=center;verticalAlign=middle;whiteSpace=wrap;rounded=0;" vertex="1" parent="1">
          <mxGeometry x="-25" y="-250" width="60" height="30" as="geometry" />
        </mxCell>
        <mxCell id="xzmJR7w3SrO1M_1E0elc-83" value="&lt;font style=&quot;font-size: 16px;&quot;&gt;&lt;b&gt;SOURCE_ERP&lt;/b&gt;&lt;/font&gt;" style="text;html=1;align=center;verticalAlign=middle;whiteSpace=wrap;rounded=0;" vertex="1" parent="1">
          <mxGeometry x="455" y="-110" width="60" height="30" as="geometry" />
        </mxCell>
      </root>
    </mxGraphModel>
  </diagram>
</mxfile>
